<svg width="445.001923" height="174.000000" viewBox="0 0 445.002 174" fill="none" xmlns="http://www.w3.org/2000/svg" xmlns:xlink="http://www.w3.org/1999/xlink">
	<desc>
			Created with Pixso.
	</desc>
	<defs/>
	<rect id="Rectangle 4" x="0.001953" y="32.000000" width="445.000000" height="4.000000" fill="#C4C4C4" fill-opacity="1.000000"/>
	<rect id="Rectangle 4.1" y="32.243652" width="349.357330" height="4.000000" transform="rotate(-0.0595261 0.000000 32.243652)" fill="#34547A" fill-opacity="1.000000"/>
	<path id="Adobe Photoshop" d="M8.60352 9.03125L3.83789 9.03125L2.76758 12L1.2207 12L5.56445 0.625L6.87695 0.625L11.2285 12L9.68945 12L8.60352 9.03125ZM4.29102 7.79688L8.1582 7.79688L6.2207 2.47656L4.29102 7.79688ZM12.1816 7.70312Q12.1816 5.75781 13.1035 4.57422Q14.0254 3.39062 15.5176 3.39062Q17.002 3.39062 17.8691 4.40625L17.8691 0L19.3145 0L19.3145 12L17.9863 12L17.916 11.0938Q17.0488 12.1562 15.502 12.1562Q14.0332 12.1562 13.1074 10.9531Q12.1816 9.75 12.1816 7.8125L12.1816 7.70312ZM13.627 7.86719Q13.627 9.30469 14.2207 10.1172Q14.8145 10.9297 15.8613 10.9297Q17.2363 10.9297 17.8691 9.69531L17.8691 5.8125Q17.2207 4.61719 15.877 4.61719Q14.8145 4.61719 14.2207 5.4375Q13.627 6.25781 13.627 7.86719ZM21.1738 7.69531Q21.1738 6.45312 21.6621 5.46094Q22.1504 4.46875 23.0215 3.92969Q23.8926 3.39062 25.0098 3.39062Q26.7363 3.39062 27.8027 4.58594Q28.8691 5.78125 28.8691 7.76562L28.8691 7.86719Q28.8691 9.10156 28.3965 10.082Q27.9238 11.0625 27.0449 11.6094Q26.166 12.1562 25.0254 12.1562Q23.3066 12.1562 22.2402 10.9609Q21.1738 9.76562 21.1738 7.79688L21.1738 7.69531ZM22.627 7.86719Q22.627 9.27344 23.2793 10.125Q23.9316 10.9766 25.0254 10.9766Q26.127 10.9766 26.7754 10.1133Q27.4238 9.25 27.4238 7.69531Q27.4238 6.30469 26.7637 5.44141Q26.1035 4.57812 25.0098 4.57812Q23.9395 4.57812 23.2832 5.42969Q22.627 6.28125 22.627 7.86719ZM37.8379 7.86719Q37.8379 9.80469 36.9473 10.9805Q36.0566 12.1562 34.5566 12.1562Q32.9551 12.1562 32.0801 11.0234L32.0098 12L30.6816 12L30.6816 0L32.127 0L32.127 4.47656Q33.002 3.39062 34.541 3.39062Q36.0801 3.39062 36.959 4.55469Q37.8379 5.71875 37.8379 7.74219L37.8379 7.86719ZM36.3926 7.70312Q36.3926 6.22656 35.8223 5.42188Q35.252 4.61719 34.1816 4.61719Q32.752 4.61719 32.127 5.94531L32.127 9.60156Q32.791 10.9297 34.1973 10.9297Q35.2363 10.9297 35.8145 10.125Q36.3926 9.32031 36.3926 7.70312ZM43.166 12.1562Q41.4473 12.1562 40.3691 11.0273Q39.291 9.89844 39.291 8.00781L39.291 7.74219Q39.291 6.48438 39.7715 5.49609Q40.252 4.50781 41.1152 3.94922Q41.9785 3.39062 42.9863 3.39062Q44.6348 3.39062 45.5488 4.47656Q46.4629 5.5625 46.4629 7.58594L46.4629 8.1875L40.7363 8.1875Q40.7676 9.4375 41.4668 10.207Q42.166 10.9766 43.2441 10.9766Q44.0098 10.9766 44.541 10.6641Q45.0723 10.3516 45.4707 9.83594L46.3535 10.5234Q45.291 12.1562 43.166 12.1562ZM42.9863 4.57812Q42.1113 4.57812 41.5176 5.21484Q40.9238 5.85156 40.7832 7L45.0176 7L45.0176 6.89062Q44.9551 5.78906 44.4238 5.18359Q43.8926 4.57812 42.9863 4.57812ZM53.8223 7.54688L53.8223 12L52.3223 12L52.3223 0.625L56.5176 0.625Q58.3848 0.625 59.4434 1.57812Q60.502 2.53125 60.502 4.10156Q60.502 5.75781 59.4668 6.65234Q58.4316 7.54688 56.502 7.54688L53.8223 7.54688ZM53.8223 6.32031L56.5176 6.32031Q57.7207 6.32031 58.3613 5.75391Q59.002 5.1875 59.002 4.11719Q59.002 3.10156 58.3613 2.49219Q57.7207 1.88281 56.6035 1.85938L53.8223 1.85938L53.8223 6.32031ZM63.6348 4.57031Q64.5957 3.39062 66.1348 3.39062Q68.8145 3.39062 68.8379 6.41406L68.8379 12L67.3926 12L67.3926 6.40625Q67.3848 5.49219 66.9746 5.05469Q66.5645 4.61719 65.6973 4.61719Q64.9941 4.61719 64.4629 4.99219Q63.9316 5.36719 63.6348 5.97656L63.6348 12L62.1895 12L62.1895 0L63.6348 0L63.6348 4.57031ZM70.6191 7.69531Q70.6191 6.45312 71.1074 5.46094Q71.5957 4.46875 72.4668 3.92969Q73.3379 3.39062 74.4551 3.39062Q76.1816 3.39062 77.248 4.58594Q78.3145 5.78125 78.3145 7.76562L78.3145 7.86719Q78.3145 9.10156 77.8418 10.082Q77.3691 11.0625 76.4902 11.6094Q75.6113 12.1562 74.4707 12.1562Q72.752 12.1562 71.6855 10.9609Q70.6191 9.76562 70.6191 7.79688L70.6191 7.69531ZM72.0723 7.86719Q72.0723 9.27344 72.7246 10.125Q73.377 10.9766 74.4707 10.9766Q75.5723 10.9766 76.2207 10.1133Q76.8691 9.25 76.8691 7.69531Q76.8691 6.30469 76.209 5.44141Q75.5488 4.57812 74.4551 4.57812Q73.3848 4.57812 72.7285 5.42969Q72.0723 6.28125 72.0723 7.86719ZM82.0879 1.5L82.0879 3.54688L83.666 3.54688L83.666 4.66406L82.0879 4.66406L82.0879 9.90625Q82.0879 10.4141 82.2988 10.668Q82.5098 10.9219 83.0176 10.9219Q83.2676 10.9219 83.7051 10.8281L83.7051 12Q83.1348 12.1562 82.5957 12.1562Q81.627 12.1562 81.1348 11.5703Q80.6426 10.9844 80.6426 9.90625L80.6426 4.66406L79.1035 4.66406L79.1035 3.54688L80.6426 3.54688L80.6426 1.5L82.0879 1.5ZM84.8145 7.69531Q84.8145 6.45312 85.3027 5.46094Q85.791 4.46875 86.6621 3.92969Q87.5332 3.39062 88.6504 3.39062Q90.377 3.39062 91.4434 4.58594Q92.5098 5.78125 92.5098 7.76562L92.5098 7.86719Q92.5098 9.10156 92.0371 10.082Q91.5645 11.0625 90.6855 11.6094Q89.8066 12.1562 88.666 12.1562Q86.9473 12.1562 85.8809 10.9609Q84.8145 9.76562 84.8145 7.79688L84.8145 7.69531ZM86.2676 7.86719Q86.2676 9.27344 86.9199 10.125Q87.5723 10.9766 88.666 10.9766Q89.7676 10.9766 90.416 10.1133Q91.0645 9.25 91.0645 7.69531Q91.0645 6.30469 90.4043 5.44141Q89.7441 4.57812 88.6504 4.57812Q87.5801 4.57812 86.9238 5.42969Q86.2676 6.28125 86.2676 7.86719ZM99.2441 9.75781Q99.2441 9.17188 98.8027 8.84766Q98.3613 8.52344 97.2637 8.28906Q96.166 8.05469 95.5215 7.72656Q94.877 7.39844 94.5684 6.94531Q94.2598 6.49219 94.2598 5.86719Q94.2598 4.82812 95.1387 4.10938Q96.0176 3.39062 97.3848 3.39062Q98.8223 3.39062 99.7168 4.13281Q100.611 4.875 100.611 6.03125L99.1582 6.03125Q99.1582 5.4375 98.6543 5.00781Q98.1504 4.57812 97.3848 4.57812Q96.5957 4.57812 96.1504 4.92188Q95.7051 5.26562 95.7051 5.82031Q95.7051 6.34375 96.1191 6.60938Q96.5332 6.875 97.6152 7.11719Q98.6973 7.35938 99.3691 7.69531Q100.041 8.03125 100.365 8.50391Q100.689 8.97656 100.689 9.65625Q100.689 10.7891 99.7832 11.4727Q98.877 12.1562 97.4316 12.1562Q96.416 12.1562 95.6348 11.7969Q94.8535 11.4375 94.4121 10.793Q93.9707 10.1484 93.9707 9.39844L95.416 9.39844Q95.4551 10.125 95.998 10.5508Q96.541 10.9766 97.4316 10.9766Q98.252 10.9766 98.748 10.6445Q99.2441 10.3125 99.2441 9.75781ZM104.018 4.57031Q104.979 3.39062 106.518 3.39062Q109.197 3.39062 109.221 6.41406L109.221 12L107.775 12L107.775 6.40625Q107.768 5.49219 107.357 5.05469Q106.947 4.61719 106.08 4.61719Q105.377 4.61719 104.846 4.99219Q104.314 5.36719 104.018 5.97656L104.018 12L102.572 12L102.572 0L104.018 0L104.018 4.57031ZM111.002 7.69531Q111.002 6.45312 111.49 5.46094Q111.979 4.46875 112.85 3.92969Q113.721 3.39062 114.838 3.39062Q116.564 3.39062 117.631 4.58594Q118.697 5.78125 118.697 7.76562L118.697 7.86719Q118.697 9.10156 118.225 10.082Q117.752 11.0625 116.873 11.6094Q115.994 12.1562 114.854 12.1562Q113.135 12.1562 112.068 10.9609Q111.002 9.76562 111.002 7.79688L111.002 7.69531ZM112.455 7.86719Q112.455 9.27344 113.107 10.125Q113.76 10.9766 114.854 10.9766Q115.955 10.9766 116.604 10.1133Q117.252 9.25 117.252 7.69531Q117.252 6.30469 116.592 5.44141Q115.932 4.57812 114.838 4.57812Q113.768 4.57812 113.111 5.42969Q112.455 6.28125 112.455 7.86719ZM127.65 7.86719Q127.65 9.79688 126.768 10.9766Q125.885 12.1562 124.377 12.1562Q122.838 12.1562 121.955 11.1797L121.955 15.25L120.51 15.25L120.51 3.54688L121.83 3.54688L121.9 4.48438Q122.783 3.39062 124.354 3.39062Q125.877 3.39062 126.764 4.53906Q127.65 5.6875 127.65 7.73438L127.65 7.86719ZM126.205 7.70312Q126.205 6.27344 125.596 5.44531Q124.986 4.61719 123.924 4.61719Q122.611 4.61719 121.955 5.78125L121.955 9.82031Q122.604 10.9766 123.939 10.9766Q124.979 10.9766 125.592 10.1523Q126.205 9.32812 126.205 7.70312Z" fill="#727272" fill-opacity="1.000000" fill-rule="evenodd"/>
	<rect id="Rectangle 4.2" x="0.001953" y="101.000000" width="445.000000" height="4.000000" fill="#C4C4C4" fill-opacity="1.000000"/>
	<rect id="Rectangle 4.3" x="0.001953" y="101.000000" width="350.000000" height="4.000000" fill="#34547A" fill-opacity="1.000000"/>
	<path id="Adobe Photoshop" d="M8.60352 78.0312L3.83789 78.0312L2.76758 81L1.2207 81L5.56445 69.625L6.87695 69.625L11.2285 81L9.68945 81L8.60352 78.0312ZM4.29102 76.7969L8.1582 76.7969L6.2207 71.4766L4.29102 76.7969ZM12.1816 76.7031Q12.1816 74.7578 13.1035 73.5742Q14.0254 72.3906 15.5176 72.3906Q17.002 72.3906 17.8691 73.4062L17.8691 69L19.3145 69L19.3145 81L17.9863 81L17.916 80.0938Q17.0488 81.1562 15.502 81.1562Q14.0332 81.1562 13.1074 79.9531Q12.1816 78.75 12.1816 76.8125L12.1816 76.7031ZM13.627 76.8672Q13.627 78.3047 14.2207 79.1172Q14.8145 79.9297 15.8613 79.9297Q17.2363 79.9297 17.8691 78.6953L17.8691 74.8125Q17.2207 73.6172 15.877 73.6172Q14.8145 73.6172 14.2207 74.4375Q13.627 75.2578 13.627 76.8672ZM21.1738 76.6953Q21.1738 75.4531 21.6621 74.4609Q22.1504 73.4688 23.0215 72.9297Q23.8926 72.3906 25.0098 72.3906Q26.7363 72.3906 27.8027 73.5859Q28.8691 74.7812 28.8691 76.7656L28.8691 76.8672Q28.8691 78.1016 28.3965 79.082Q27.9238 80.0625 27.0449 80.6094Q26.166 81.1562 25.0254 81.1562Q23.3066 81.1562 22.2402 79.9609Q21.1738 78.7656 21.1738 76.7969L21.1738 76.6953ZM22.627 76.8672Q22.627 78.2734 23.2793 79.125Q23.9316 79.9766 25.0254 79.9766Q26.127 79.9766 26.7754 79.1133Q27.4238 78.25 27.4238 76.6953Q27.4238 75.3047 26.7637 74.4414Q26.1035 73.5781 25.0098 73.5781Q23.9395 73.5781 23.2832 74.4297Q22.627 75.2812 22.627 76.8672ZM37.8379 76.8672Q37.8379 78.8047 36.9473 79.9805Q36.0566 81.1562 34.5566 81.1562Q32.9551 81.1562 32.0801 80.0234L32.0098 81L30.6816 81L30.6816 69L32.127 69L32.127 73.4766Q33.002 72.3906 34.541 72.3906Q36.0801 72.3906 36.959 73.5547Q37.8379 74.7188 37.8379 76.7422L37.8379 76.8672ZM36.3926 76.7031Q36.3926 75.2266 35.8223 74.4219Q35.252 73.6172 34.1816 73.6172Q32.752 73.6172 32.127 74.9453L32.127 78.6016Q32.791 79.9297 34.1973 79.9297Q35.2363 79.9297 35.8145 79.125Q36.3926 78.3203 36.3926 76.7031ZM43.166 81.1562Q41.4473 81.1562 40.3691 80.0273Q39.291 78.8984 39.291 77.0078L39.291 76.7422Q39.291 75.4844 39.7715 74.4961Q40.252 73.5078 41.1152 72.9492Q41.9785 72.3906 42.9863 72.3906Q44.6348 72.3906 45.5488 73.4766Q46.4629 74.5625 46.4629 76.5859L46.4629 77.1875L40.7363 77.1875Q40.7676 78.4375 41.4668 79.207Q42.166 79.9766 43.2441 79.9766Q44.0098 79.9766 44.541 79.6641Q45.0723 79.3516 45.4707 78.8359L46.3535 79.5234Q45.291 81.1562 43.166 81.1562ZM42.9863 73.5781Q42.1113 73.5781 41.5176 74.2148Q40.9238 74.8516 40.7832 76L45.0176 76L45.0176 75.8906Q44.9551 74.7891 44.4238 74.1836Q43.8926 73.5781 42.9863 73.5781ZM53.8223 76.5469L53.8223 81L52.3223 81L52.3223 69.625L56.5176 69.625Q58.3848 69.625 59.4434 70.5781Q60.502 71.5312 60.502 73.1016Q60.502 74.7578 59.4668 75.6523Q58.4316 76.5469 56.502 76.5469L53.8223 76.5469ZM53.8223 75.3203L56.5176 75.3203Q57.7207 75.3203 58.3613 74.7539Q59.002 74.1875 59.002 73.1172Q59.002 72.1016 58.3613 71.4922Q57.7207 70.8828 56.6035 70.8594L53.8223 70.8594L53.8223 75.3203ZM63.6348 73.5703Q64.5957 72.3906 66.1348 72.3906Q68.8145 72.3906 68.8379 75.4141L68.8379 81L67.3926 81L67.3926 75.4062Q67.3848 74.4922 66.9746 74.0547Q66.5645 73.6172 65.6973 73.6172Q64.9941 73.6172 64.4629 73.9922Q63.9316 74.3672 63.6348 74.9766L63.6348 81L62.1895 81L62.1895 69L63.6348 69L63.6348 73.5703ZM70.6191 76.6953Q70.6191 75.4531 71.1074 74.4609Q71.5957 73.4688 72.4668 72.9297Q73.3379 72.3906 74.4551 72.3906Q76.1816 72.3906 77.248 73.5859Q78.3145 74.7812 78.3145 76.7656L78.3145 76.8672Q78.3145 78.1016 77.8418 79.082Q77.3691 80.0625 76.4902 80.6094Q75.6113 81.1562 74.4707 81.1562Q72.752 81.1562 71.6855 79.9609Q70.6191 78.7656 70.6191 76.7969L70.6191 76.6953ZM72.0723 76.8672Q72.0723 78.2734 72.7246 79.125Q73.377 79.9766 74.4707 79.9766Q75.5723 79.9766 76.2207 79.1133Q76.8691 78.25 76.8691 76.6953Q76.8691 75.3047 76.209 74.4414Q75.5488 73.5781 74.4551 73.5781Q73.3848 73.5781 72.7285 74.4297Q72.0723 75.2812 72.0723 76.8672ZM82.0879 70.5L82.0879 72.5469L83.666 72.5469L83.666 73.6641L82.0879 73.6641L82.0879 78.9062Q82.0879 79.4141 82.2988 79.668Q82.5098 79.9219 83.0176 79.9219Q83.2676 79.9219 83.7051 79.8281L83.7051 81Q83.1348 81.1562 82.5957 81.1562Q81.627 81.1562 81.1348 80.5703Q80.6426 79.9844 80.6426 78.9062L80.6426 73.6641L79.1035 73.6641L79.1035 72.5469L80.6426 72.5469L80.6426 70.5L82.0879 70.5ZM84.8145 76.6953Q84.8145 75.4531 85.3027 74.4609Q85.791 73.4688 86.6621 72.9297Q87.5332 72.3906 88.6504 72.3906Q90.377 72.3906 91.4434 73.5859Q92.5098 74.7812 92.5098 76.7656L92.5098 76.8672Q92.5098 78.1016 92.0371 79.082Q91.5645 80.0625 90.6855 80.6094Q89.8066 81.1562 88.666 81.1562Q86.9473 81.1562 85.8809 79.9609Q84.8145 78.7656 84.8145 76.7969L84.8145 76.6953ZM86.2676 76.8672Q86.2676 78.2734 86.9199 79.125Q87.5723 79.9766 88.666 79.9766Q89.7676 79.9766 90.416 79.1133Q91.0645 78.25 91.0645 76.6953Q91.0645 75.3047 90.4043 74.4414Q89.7441 73.5781 88.6504 73.5781Q87.5801 73.5781 86.9238 74.4297Q86.2676 75.2812 86.2676 76.8672ZM99.2441 78.7578Q99.2441 78.1719 98.8027 77.8477Q98.3613 77.5234 97.2637 77.2891Q96.166 77.0547 95.5215 76.7266Q94.877 76.3984 94.5684 75.9453Q94.2598 75.4922 94.2598 74.8672Q94.2598 73.8281 95.1387 73.1094Q96.0176 72.3906 97.3848 72.3906Q98.8223 72.3906 99.7168 73.1328Q100.611 73.875 100.611 75.0312L99.1582 75.0312Q99.1582 74.4375 98.6543 74.0078Q98.1504 73.5781 97.3848 73.5781Q96.5957 73.5781 96.1504 73.9219Q95.7051 74.2656 95.7051 74.8203Q95.7051 75.3438 96.1191 75.6094Q96.5332 75.875 97.6152 76.1172Q98.6973 76.3594 99.3691 76.6953Q100.041 77.0312 100.365 77.5039Q100.689 77.9766 100.689 78.6562Q100.689 79.7891 99.7832 80.4727Q98.877 81.1562 97.4316 81.1562Q96.416 81.1562 95.6348 80.7969Q94.8535 80.4375 94.4121 79.793Q93.9707 79.1484 93.9707 78.3984L95.416 78.3984Q95.4551 79.125 95.998 79.5508Q96.541 79.9766 97.4316 79.9766Q98.252 79.9766 98.748 79.6445Q99.2441 79.3125 99.2441 78.7578ZM104.018 73.5703Q104.979 72.3906 106.518 72.3906Q109.197 72.3906 109.221 75.4141L109.221 81L107.775 81L107.775 75.4062Q107.768 74.4922 107.357 74.0547Q106.947 73.6172 106.08 73.6172Q105.377 73.6172 104.846 73.9922Q104.314 74.3672 104.018 74.9766L104.018 81L102.572 81L102.572 69L104.018 69L104.018 73.5703ZM111.002 76.6953Q111.002 75.4531 111.49 74.4609Q111.979 73.4688 112.85 72.9297Q113.721 72.3906 114.838 72.3906Q116.564 72.3906 117.631 73.5859Q118.697 74.7812 118.697 76.7656L118.697 76.8672Q118.697 78.1016 118.225 79.082Q117.752 80.0625 116.873 80.6094Q115.994 81.1562 114.854 81.1562Q113.135 81.1562 112.068 79.9609Q111.002 78.7656 111.002 76.7969L111.002 76.6953ZM112.455 76.8672Q112.455 78.2734 113.107 79.125Q113.76 79.9766 114.854 79.9766Q115.955 79.9766 116.604 79.1133Q117.252 78.25 117.252 76.6953Q117.252 75.3047 116.592 74.4414Q115.932 73.5781 114.838 73.5781Q113.768 73.5781 113.111 74.4297Q112.455 75.2812 112.455 76.8672ZM127.65 76.8672Q127.65 78.7969 126.768 79.9766Q125.885 81.1562 124.377 81.1562Q122.838 81.1562 121.955 80.1797L121.955 84.25L120.51 84.25L120.51 72.5469L121.83 72.5469L121.9 73.4844Q122.783 72.3906 124.354 72.3906Q125.877 72.3906 126.764 73.5391Q127.65 74.6875 127.65 76.7344L127.65 76.8672ZM126.205 76.7031Q126.205 75.2734 125.596 74.4453Q124.986 73.6172 123.924 73.6172Q122.611 73.6172 121.955 74.7812L121.955 78.8203Q122.604 79.9766 123.939 79.9766Q124.979 79.9766 125.592 79.1523Q126.205 78.3281 126.205 76.7031Z" fill="#727272" fill-opacity="1.000000" fill-rule="evenodd"/>
	<rect id="Rectangle 4.4" x="0.001953" y="170.000000" width="445.000000" height="4.000000" fill="#C4C4C4" fill-opacity="1.000000"/>
	<rect id="Rectangle 4.5" x="0.001953" y="170.000000" width="350.000000" height="4.000000" fill="#34547A" fill-opacity="1.000000"/>
	<path id="Adobe Photoshop" d="M8.60352 147.031L3.83789 147.031L2.76758 150L1.2207 150L5.56445 138.625L6.87695 138.625L11.2285 150L9.68945 150L8.60352 147.031ZM4.29102 145.797L8.1582 145.797L6.2207 140.477L4.29102 145.797ZM12.1816 145.703Q12.1816 143.758 13.1035 142.574Q14.0254 141.391 15.5176 141.391Q17.002 141.391 17.8691 142.406L17.8691 138L19.3145 138L19.3145 150L17.9863 150L17.916 149.094Q17.0488 150.156 15.502 150.156Q14.0332 150.156 13.1074 148.953Q12.1816 147.75 12.1816 145.812L12.1816 145.703ZM13.627 145.867Q13.627 147.305 14.2207 148.117Q14.8145 148.93 15.8613 148.93Q17.2363 148.93 17.8691 147.695L17.8691 143.812Q17.2207 142.617 15.877 142.617Q14.8145 142.617 14.2207 143.438Q13.627 144.258 13.627 145.867ZM21.1738 145.695Q21.1738 144.453 21.6621 143.461Q22.1504 142.469 23.0215 141.93Q23.8926 141.391 25.0098 141.391Q26.7363 141.391 27.8027 142.586Q28.8691 143.781 28.8691 145.766L28.8691 145.867Q28.8691 147.102 28.3965 148.082Q27.9238 149.062 27.0449 149.609Q26.166 150.156 25.0254 150.156Q23.3066 150.156 22.2402 148.961Q21.1738 147.766 21.1738 145.797L21.1738 145.695ZM22.627 145.867Q22.627 147.273 23.2793 148.125Q23.9316 148.977 25.0254 148.977Q26.127 148.977 26.7754 148.113Q27.4238 147.25 27.4238 145.695Q27.4238 144.305 26.7637 143.441Q26.1035 142.578 25.0098 142.578Q23.9395 142.578 23.2832 143.43Q22.627 144.281 22.627 145.867ZM37.8379 145.867Q37.8379 147.805 36.9473 148.98Q36.0566 150.156 34.5566 150.156Q32.9551 150.156 32.0801 149.023L32.0098 150L30.6816 150L30.6816 138L32.127 138L32.127 142.477Q33.002 141.391 34.541 141.391Q36.0801 141.391 36.959 142.555Q37.8379 143.719 37.8379 145.742L37.8379 145.867ZM36.3926 145.703Q36.3926 144.227 35.8223 143.422Q35.252 142.617 34.1816 142.617Q32.752 142.617 32.127 143.945L32.127 147.602Q32.791 148.93 34.1973 148.93Q35.2363 148.93 35.8145 148.125Q36.3926 147.32 36.3926 145.703ZM43.166 150.156Q41.4473 150.156 40.3691 149.027Q39.291 147.898 39.291 146.008L39.291 145.742Q39.291 144.484 39.7715 143.496Q40.252 142.508 41.1152 141.949Q41.9785 141.391 42.9863 141.391Q44.6348 141.391 45.5488 142.477Q46.4629 143.562 46.4629 145.586L46.4629 146.188L40.7363 146.188Q40.7676 147.438 41.4668 148.207Q42.166 148.977 43.2441 148.977Q44.0098 148.977 44.541 148.664Q45.0723 148.352 45.4707 147.836L46.3535 148.523Q45.291 150.156 43.166 150.156ZM42.9863 142.578Q42.1113 142.578 41.5176 143.215Q40.9238 143.852 40.7832 145L45.0176 145L45.0176 144.891Q44.9551 143.789 44.4238 143.184Q43.8926 142.578 42.9863 142.578ZM53.8223 145.547L53.8223 150L52.3223 150L52.3223 138.625L56.5176 138.625Q58.3848 138.625 59.4434 139.578Q60.502 140.531 60.502 142.102Q60.502 143.758 59.4668 144.652Q58.4316 145.547 56.502 145.547L53.8223 145.547ZM53.8223 144.32L56.5176 144.32Q57.7207 144.32 58.3613 143.754Q59.002 143.188 59.002 142.117Q59.002 141.102 58.3613 140.492Q57.7207 139.883 56.6035 139.859L53.8223 139.859L53.8223 144.32ZM63.6348 142.57Q64.5957 141.391 66.1348 141.391Q68.8145 141.391 68.8379 144.414L68.8379 150L67.3926 150L67.3926 144.406Q67.3848 143.492 66.9746 143.055Q66.5645 142.617 65.6973 142.617Q64.9941 142.617 64.4629 142.992Q63.9316 143.367 63.6348 143.977L63.6348 150L62.1895 150L62.1895 138L63.6348 138L63.6348 142.57ZM70.6191 145.695Q70.6191 144.453 71.1074 143.461Q71.5957 142.469 72.4668 141.93Q73.3379 141.391 74.4551 141.391Q76.1816 141.391 77.248 142.586Q78.3145 143.781 78.3145 145.766L78.3145 145.867Q78.3145 147.102 77.8418 148.082Q77.3691 149.062 76.4902 149.609Q75.6113 150.156 74.4707 150.156Q72.752 150.156 71.6855 148.961Q70.6191 147.766 70.6191 145.797L70.6191 145.695ZM72.0723 145.867Q72.0723 147.273 72.7246 148.125Q73.377 148.977 74.4707 148.977Q75.5723 148.977 76.2207 148.113Q76.8691 147.25 76.8691 145.695Q76.8691 144.305 76.209 143.441Q75.5488 142.578 74.4551 142.578Q73.3848 142.578 72.7285 143.43Q72.0723 144.281 72.0723 145.867ZM82.0879 139.5L82.0879 141.547L83.666 141.547L83.666 142.664L82.0879 142.664L82.0879 147.906Q82.0879 148.414 82.2988 148.668Q82.5098 148.922 83.0176 148.922Q83.2676 148.922 83.7051 148.828L83.7051 150Q83.1348 150.156 82.5957 150.156Q81.627 150.156 81.1348 149.57Q80.6426 148.984 80.6426 147.906L80.6426 142.664L79.1035 142.664L79.1035 141.547L80.6426 141.547L80.6426 139.5L82.0879 139.5ZM84.8145 145.695Q84.8145 144.453 85.3027 143.461Q85.791 142.469 86.6621 141.93Q87.5332 141.391 88.6504 141.391Q90.377 141.391 91.4434 142.586Q92.5098 143.781 92.5098 145.766L92.5098 145.867Q92.5098 147.102 92.0371 148.082Q91.5645 149.062 90.6855 149.609Q89.8066 150.156 88.666 150.156Q86.9473 150.156 85.8809 148.961Q84.8145 147.766 84.8145 145.797L84.8145 145.695ZM86.2676 145.867Q86.2676 147.273 86.9199 148.125Q87.5723 148.977 88.666 148.977Q89.7676 148.977 90.416 148.113Q91.0645 147.25 91.0645 145.695Q91.0645 144.305 90.4043 143.441Q89.7441 142.578 88.6504 142.578Q87.5801 142.578 86.9238 143.43Q86.2676 144.281 86.2676 145.867ZM99.2441 147.758Q99.2441 147.172 98.8027 146.848Q98.3613 146.523 97.2637 146.289Q96.166 146.055 95.5215 145.727Q94.877 145.398 94.5684 144.945Q94.2598 144.492 94.2598 143.867Q94.2598 142.828 95.1387 142.109Q96.0176 141.391 97.3848 141.391Q98.8223 141.391 99.7168 142.133Q100.611 142.875 100.611 144.031L99.1582 144.031Q99.1582 143.438 98.6543 143.008Q98.1504 142.578 97.3848 142.578Q96.5957 142.578 96.1504 142.922Q95.7051 143.266 95.7051 143.82Q95.7051 144.344 96.1191 144.609Q96.5332 144.875 97.6152 145.117Q98.6973 145.359 99.3691 145.695Q100.041 146.031 100.365 146.504Q100.689 146.977 100.689 147.656Q100.689 148.789 99.7832 149.473Q98.877 150.156 97.4316 150.156Q96.416 150.156 95.6348 149.797Q94.8535 149.438 94.4121 148.793Q93.9707 148.148 93.9707 147.398L95.416 147.398Q95.4551 148.125 95.998 148.551Q96.541 148.977 97.4316 148.977Q98.252 148.977 98.748 148.645Q99.2441 148.312 99.2441 147.758ZM104.018 142.57Q104.979 141.391 106.518 141.391Q109.197 141.391 109.221 144.414L109.221 150L107.775 150L107.775 144.406Q107.768 143.492 107.357 143.055Q106.947 142.617 106.08 142.617Q105.377 142.617 104.846 142.992Q104.314 143.367 104.018 143.977L104.018 150L102.572 150L102.572 138L104.018 138L104.018 142.57ZM111.002 145.695Q111.002 144.453 111.49 143.461Q111.979 142.469 112.85 141.93Q113.721 141.391 114.838 141.391Q116.564 141.391 117.631 142.586Q118.697 143.781 118.697 145.766L118.697 145.867Q118.697 147.102 118.225 148.082Q117.752 149.062 116.873 149.609Q115.994 150.156 114.854 150.156Q113.135 150.156 112.068 148.961Q111.002 147.766 111.002 145.797L111.002 145.695ZM112.455 145.867Q112.455 147.273 113.107 148.125Q113.76 148.977 114.854 148.977Q115.955 148.977 116.604 148.113Q117.252 147.25 117.252 145.695Q117.252 144.305 116.592 143.441Q115.932 142.578 114.838 142.578Q113.768 142.578 113.111 143.43Q112.455 144.281 112.455 145.867ZM127.65 145.867Q127.65 147.797 126.768 148.977Q125.885 150.156 124.377 150.156Q122.838 150.156 121.955 149.18L121.955 153.25L120.51 153.25L120.51 141.547L121.83 141.547L121.9 142.484Q122.783 141.391 124.354 141.391Q125.877 141.391 126.764 142.539Q127.65 143.688 127.65 145.734L127.65 145.867ZM126.205 145.703Q126.205 144.273 125.596 143.445Q124.986 142.617 123.924 142.617Q122.611 142.617 121.955 143.781L121.955 147.82Q122.604 148.977 123.939 148.977Q124.979 148.977 125.592 148.152Q126.205 147.328 126.205 145.703Z" fill="#727272" fill-opacity="1.000000" fill-rule="evenodd"/>
</svg>
